<mxfile host="app.diagrams.net" modified="2021-09-12T13:15:04.793Z" agent="5.0 (Macintosh; Intel Mac OS X 10_15_3) AppleWebKit/537.36 (KHTML, like Gecko) Chrome/93.0.4577.63 Safari/537.36" etag="NE54Z_rB0Xu46gekmTPJ" version="15.1.4" type="github">
  <diagram id="2trqyHo4jDlvlw4yZjQj" name="Page-1">
    <mxGraphModel dx="946" dy="573" grid="1" gridSize="10" guides="1" tooltips="1" connect="1" arrows="1" fold="1" page="1" pageScale="1" pageWidth="827" pageHeight="1169" math="0" shadow="0">
      <root>
        <mxCell id="0" />
        <mxCell id="1" parent="0" />
        <mxCell id="WWo1dM_mW3f5aNN82KtH-1" value="替代阿里云logstore" style="ellipse;whiteSpace=wrap;html=1;fillColor=#dae8fc;strokeColor=#6c8ebf;" vertex="1" parent="1">
          <mxGeometry x="200" y="150" width="180" height="100" as="geometry" />
        </mxCell>
        <mxCell id="WWo1dM_mW3f5aNN82KtH-2" value="承接公司有类似海量数据且存储成本逐渐升高的需求" style="ellipse;whiteSpace=wrap;html=1;fillColor=#e1d5e7;strokeColor=#9673a6;" vertex="1" parent="1">
          <mxGeometry x="440" y="150" width="170" height="100" as="geometry" />
        </mxCell>
        <mxCell id="WWo1dM_mW3f5aNN82KtH-4" value="支持sql标准的查询能力" style="ellipse;whiteSpace=wrap;html=1;fillColor=#dae8fc;strokeColor=#6c8ebf;" vertex="1" parent="1">
          <mxGeometry x="310" y="280" width="180" height="100" as="geometry" />
        </mxCell>
      </root>
    </mxGraphModel>
  </diagram>
</mxfile>
